<svg xmlns="http://www.w3.org/2000/svg" height="34" width="34" viewBox="1 0 48 48"><path d="M4.75 42.3q-1.9 0-3.25-1.35t-1.35-3.2V10.2Q.15 8.35 1.5 7t3.25-1.35h38.5q1.8 0 3.175 1.35Q47.8 8.35 47.8 10.2v27.55q0 1.85-1.375 3.2T43.25 42.3ZM17.4 27.85q2.55 0 4.325-1.825Q23.5 24.2 23.5 21.6q0-2.5-1.775-4.3-1.775-1.8-4.325-1.8-2.65 0-4.45 1.8-1.8 1.8-1.8 4.35t1.8 4.375q1.8 1.825 4.45 1.825Zm19.5 8.65 3.8-3.75-2.8-4h-3.5q-.35-1.25-.575-2.25-.225-1-.225-2.3 0-1.3.225-2.45.225-1.15.575-2.4h3.5l2.8-4-3.8-3.75q-2.7 2.2-4.2 5.575T31.2 24.2q0 3.6 1.5 6.85 1.5 3.25 4.2 5.45ZM4.5 38.35h25.85q-2.25-3.25-5.525-5.275Q21.55 31.05 17.5 31.05q-3.95 0-7.4 2.025T4.5 38.35Z"/></svg>