<?xml version="1.0" encoding="utf-8"?>
<svg width="119pt" height="119pt" viewBox="-2 -0.5 800 800" xmlns="http://www.w3.org/2000/svg">
  <g transform="matrix(0.1, 0, 0, -0.1, 0, 800.000012)" fill="#000000" stroke="none">
    <path d="M 1495 5163 C 1094 4962 765 4794 766 4789 C 767 4784 1022 4640 1039 4640 C 1056 4640 1286 4545 1302 4531 C 1306 4527 1309 3495 1309 3495 L 1283 3400 C 1260 3317 1257 3285 1256 3150 C 1255 2990 1260 2960 1316 2802 C 1350 2709 1454 2596 1584 2511 C 1655 2465 1786 2403 1794 2411 C 1794.706 2411.471 1887.036 2374.191 1931.952 2370.822 C 2001.254 2365.624 2473.545 2355.056 2607.18 2363.259 C 2682.916 2367.908 2752.665 2410 2754 2410 C 2773 2410 2927 2487 2978 2522 C 3004 2540 3049 2576 3078 2604 C 3126 2649 3135 2653 3183 2655 C 3211 2657 3919 2659 4755 2661 C 6551 2664 7072 2671 7179 2694 C 7300 2720 7401 2793 7479 2913 C 7557 3034 7584 3175 7556 3310 C 7507 3542 7323 3712 7076 3755 C 7028 3763 6984 3767 6979 3764 C 6974 3761 6131 3757 5105 3754 L 3240 3749 L 3240 4147 L 3240 4545 L 3488 4656 C 3672 4739 3736 4772 3738 4786 C 3740 4802 3616 4865 2989 5165 C 2576 5363 2235 5526 2231 5527 C 2228 5528 1897 5364 1495 5163 Z"/>
    <path d="M1830 2446 c-15 -19 -9 -56 12 -69 34 -22 66 41 36 71 -16 16 -33 15 -48 -2z"/>
    <path d="M2668 2449 c-31 -18 -17 -79 18 -79 17 0 44 28 44 45 0 14 -27 45 -38 45 -4 0 -15 -5 -24 -11z"/>
    <path d="M1936 2415 c-17 -45 -9 -52 77 -66 105 -18 426 -18 525 0 l73 13 -3 31 -3 32 -60 -5 c-96 -8 -485 -6 -546 3 -48 7 -57 6 -63 -8z"/>
  </g>
</svg>