<?xml version="1.0" standalone="no"?>
<!DOCTYPE svg PUBLIC "-//W3C//DTD SVG 20010904//EN"
 "http://www.w3.org/TR/2001/REC-SVG-20010904/DTD/svg10.dtd">
<svg version="1.0" xmlns="http://www.w3.org/2000/svg"
 width="120pt" height="120pt" viewBox="0 20 800 800"
 preserveAspectRatio="xMidYMid meet">

<g transform="translate(0.000000,800.000000) scale(0.100000,-0.100000)"
fill="#000000" stroke="none">
<path d="M1495 5163 c-401 -201 -730 -369 -729 -374 1 -5 2 -13 2 -17 1 -5 32
-22 69 -37 38 -16 74 -33 80 -38 9 -7 13 -44 13 -124 0 -115 0 -115 -30 -143
-34 -32 -39 -72 -14 -108 14 -21 13 -27 -11 -88 -36 -89 -67 -214 -60 -241 9
-38 54 -53 157 -53 139 0 198 25 198 82 0 25 -79 208 -105 244 -23 30 -23 30
-4 55 28 36 24 76 -11 109 -29 27 -30 31 -30 119 0 82 2 91 19 91 17 0 247
-95 263 -109 4 -4 7 -238 7 -521 l0 -515 -26 -95 c-23 -83 -26 -115 -27 -250
-1 -160 4 -190 60 -348 34 -93 138 -206 268 -291 71 -46 202 -108 210 -100 3
2 7 16 11 31 7 25 3 29 -77 69 -166 83 -287 191 -339 304 -50 108 -51 103 43
180 46 37 93 72 106 78 27 13 28 31 1 118 -28 92 -21 191 19 264 31 57 105
117 171 140 92 31 214 10 270 -46 16 -16 38 -29 49 -29 17 0 129 120 198 211
l20 28 90 -106 c49 -58 93 -111 97 -119 12 -21 51 -17 73 7 10 12 42 32 69 45
133 63 324 -7 390 -142 30 -60 33 -203 6 -274 -12 -30 -21 -60 -21 -67 0 -7
24 -28 53 -47 59 -40 160 -124 166 -138 2 -6 -8 -40 -23 -77 -49 -126 -184
-253 -352 -332 -78 -36 -81 -38 -76 -68 2 -17 10 -31 16 -31 19 0 173 77 224
112 26 18 71 54 100 82 48 45 57 49 105 51 28 2 736 4 1572 6 1796 3 2317 10
2424 33 121 26 222 99 300 219 78 121 105 262 77 397 -49 232 -233 402 -480
445 -48 8 -92 12 -97 9 -5 -3 -848 -7 -1874 -10 l-1865 -5 0 398 0 398 248
111 c184 83 248 116 250 130 2 16 -122 79 -749 379 -413 198 -754 361 -758
362 -3 1 -334 -163 -736 -364z m239 -1193 c51 -63 101 -128 111 -143 32 -50
70 -52 155 -7 55 28 175 43 312 38 123 -5 202 -24 221 -54 4 -7 32 -18 63 -25
l57 -13 21 30 c45 62 253 320 269 333 15 12 21 6 52 -62 19 -42 35 -80 35 -85
0 -17 79 -276 92 -299 7 -14 21 -23 35 -23 13 0 23 -5 23 -11 0 -5 -5 -7 -10
-4 -15 9 -40 -14 -40 -36 0 -20 28 -39 48 -32 17 6 15 -7 -3 -21 -13 -10 -13
-17 0 -61 37 -120 60 -405 39 -482 -6 -22 -8 -21 -63 22 -31 25 -68 55 -83 67
l-28 23 16 54 c24 79 16 220 -16 286 -33 69 -99 131 -178 168 -58 28 -78 32
-148 32 -73 0 -87 -4 -155 -37 l-74 -37 -98 104 c-71 75 -105 105 -122 105
-16 0 -43 -22 -89 -72 -36 -40 -66 -75 -66 -79 0 -4 -16 -19 -35 -33 l-35 -27
-31 22 c-39 27 -139 59 -188 59 -136 0 -296 -111 -337 -233 -23 -68 -23 -216
-1 -274 15 -41 15 -42 -8 -57 -13 -9 -49 -36 -80 -62 -31 -25 -60 -43 -63 -39
-4 4 -7 70 -6 148 1 124 5 157 32 262 21 81 27 125 21 137 -12 23 -11 28 6 28
23 0 38 36 21 52 -12 11 -12 16 4 33 15 17 83 224 104 316 3 15 19 57 36 94
l31 68 30 -29 c17 -16 72 -81 123 -144z m3459 -581 c-50 -51 -73 -49 -38 4 19
27 33 37 53 37 l27 0 -42 -41z m1484 19 c6 -7 36 -78 67 -158 31 -80 66 -157
77 -172 l20 -28 -56 0 c-30 0 -55 5 -55 10 0 6 5 10 10 10 13 0 13 23 -2 55
-11 24 -15 25 -88 25 l-76 0 -12 -33 c-15 -43 -15 -47 4 -47 27 0 9 -25 -20
-28 -49 -6 -60 4 -37 35 11 16 43 89 71 163 29 74 56 145 61 158 10 25 22 28
36 10z m-570 -14 c2 -6 -6 -14 -18 -17 -21 -6 -22 -9 -16 -98 4 -51 7 -118 7
-151 0 -45 3 -58 15 -58 8 0 15 -7 15 -15 0 -12 -13 -15 -60 -15 -47 0 -60 3
-60 15 0 8 7 15 15 15 13 0 15 24 15 155 0 131 -2 155 -15 155 -16 0 -20 12
-8 24 11 11 106 2 110 -10z m353 -19 c0 -38 -19 -48 -27 -15 -5 18 -12 21 -52
18 l-46 -3 -3 -148 c-2 -143 -2 -149 18 -154 38 -10 14 -28 -40 -31 -56 -3
-93 14 -52 24 22 6 22 9 22 160 l0 154 -49 0 c-40 0 -50 -3 -54 -20 -3 -11
-10 -20 -16 -20 -12 0 -15 52 -4 63 3 4 73 7 155 7 l148 0 0 -35z m547 -90
c26 -69 51 -125 54 -125 4 0 28 56 55 125 l48 125 43 0 c24 0 43 -4 43 -10 0
-5 -7 -10 -15 -10 -13 0 -15 -24 -15 -160 0 -136 2 -160 15 -160 8 0 15 -4 15
-10 0 -6 -27 -10 -60 -10 -58 0 -80 12 -40 23 19 5 20 14 20 128 0 68 -4 119
-8 114 -5 -6 -28 -59 -52 -120 -42 -106 -58 -132 -71 -117 -3 4 -27 62 -53
130 -26 67 -49 122 -52 122 -2 0 -4 -57 -4 -126 0 -117 1 -126 20 -131 39 -10
19 -23 -35 -23 -30 0 -55 5 -55 10 0 6 9 10 20 10 19 0 20 7 20 156 0 147 -1
156 -20 161 -37 10 -20 23 29 23 l50 0 48 -125z m-3369 -50 c35 -88 70 -167
78 -176 23 -25 17 -29 -41 -29 -54 0 -70 11 -40 28 14 7 14 12 0 45 l-15 37
-74 0 -74 0 -15 -37 c-13 -33 -14 -40 -1 -49 23 -18 16 -24 -26 -24 -43 0 -47
5 -26 29 7 9 39 84 71 166 31 83 60 156 62 163 15 37 40 -2 101 -153z m570 52
c20 -16 42 -63 42 -92 0 -25 -1 -25 -80 -25 -79 0 -80 0 -80 -26 0 -15 12 -38
30 -56 31 -31 59 -34 113 -13 13 5 17 2 17 -13 0 -34 -96 -45 -150 -17 -99 51
-81 232 25 257 25 6 66 -1 83 -15z m284 7 c11 -7 10 -51 -1 -58 -5 -3 -16 5
-25 19 -21 32 -70 35 -86 4 -15 -27 0 -44 62 -71 82 -35 98 -79 49 -129 -24
-23 -38 -29 -73 -29 -74 0 -88 8 -88 46 0 37 19 47 27 15 10 -40 95 -44 109
-6 8 21 -14 45 -56 63 -68 27 -93 67 -74 117 14 36 114 55 156 29z m302 -23
c29 -29 31 -36 31 -101 0 -64 -2 -72 -31 -101 -59 -59 -164 -47 -197 24 -21
44 -22 109 -1 152 34 71 139 85 198 26z m276 4 c0 -38 -15 -45 -35 -18 -12 16
-14 16 -39 0 -25 -17 -26 -21 -26 -107 0 -73 3 -90 15 -90 8 0 15 -4 15 -10 0
-6 -27 -10 -60 -10 -58 0 -80 12 -40 23 18 5 20 14 20 107 0 93 -2 102 -20
107 -34 9 -22 23 19 23 26 0 41 -5 45 -16 5 -13 9 -13 32 5 15 12 37 21 50 21
21 0 24 -5 24 -35z m128 -92 c2 -98 6 -123 17 -123 7 0 17 -4 20 -10 4 -6 -18
-10 -59 -10 -37 0 -66 4 -66 10 0 6 9 10 20 10 19 0 20 7 20 110 0 103 -1 110
-20 110 -20 0 -26 11 -13 24 4 4 23 6 43 4 l35 -3 3 -122z m263 108 c20 -16
23 -29 27 -115 4 -82 7 -98 23 -107 11 -5 19 -14 19 -18 0 -18 -41 -19 -61 -2
-21 17 -24 16 -58 -1 -63 -33 -121 -2 -121 63 0 48 32 75 100 84 44 6 50 10
50 31 0 57 -63 78 -102 33 -22 -26 -40 -24 -36 3 6 46 114 66 159 29z m273 13
c21 -8 22 -64 1 -64 -8 0 -15 7 -15 15 0 24 -39 39 -67 26 -40 -18 -27 -52 33
-81 72 -35 84 -48 84 -85 0 -47 -38 -75 -99 -75 -74 0 -91 8 -91 41 0 19 5 29
15 29 8 0 15 -6 15 -13 0 -15 41 -37 68 -37 24 0 42 19 42 46 0 16 -13 28 -55
47 -30 15 -61 37 -70 51 -20 29 -11 70 18 91 22 15 92 20 121 9z m-1794 -19
c6 -8 10 -22 8 -31 -5 -26 -29 -29 -35 -5 -12 45 -98 33 -91 -12 2 -15 19 -30
55 -47 66 -32 86 -51 86 -86 0 -44 -43 -74 -104 -74 -63 0 -89 13 -89 45 0 32
13 32 44 0 31 -31 70 -32 90 -4 21 31 10 49 -48 74 -29 13 -58 30 -66 39 -21
27 -17 76 9 98 29 23 122 25 141 3z"/>
<path d="M1576 4008 c-21 -34 -86 -256 -80 -273 8 -20 31 -19 42 3 5 9 19 61
32 114 12 54 25 100 30 103 5 3 26 -16 47 -42 72 -90 151 -165 170 -161 43 8
25 41 -84 150 -130 131 -137 136 -157 106z"/>
<path d="M2811 3909 c-66 -66 -121 -124 -121 -128 0 -19 29 -32 47 -23 20 11
108 103 164 173 l36 44 27 -115 c27 -114 44 -149 65 -136 16 11 14 28 -20 144
-32 112 -54 162 -68 162 -5 0 -63 -54 -130 -121z"/>
<path d="M6623 3273 c-12 -32 -25 -66 -29 -75 -5 -16 1 -18 55 -18 34 0 61 3
61 7 0 12 -55 143 -60 143 -3 0 -15 -26 -27 -57z"/>
<path d="M3517 3257 c-38 -95 -38 -97 29 -97 l57 0 -6 28 c-3 16 -16 53 -29
82 l-24 54 -27 -67z"/>
<path d="M4117 3268 c-9 -7 -19 -25 -23 -40 l-6 -28 57 0 57 0 -7 27 c-13 52
-43 67 -78 41z"/>
<path d="M4653 3253 c-12 -18 -18 -46 -18 -83 0 -74 23 -110 70 -110 54 0 86
65 71 146 -14 73 -88 101 -123 47z"/>
<path d="M5362 3154 c-48 -33 -11 -98 45 -78 24 8 28 16 31 52 3 40 2 42 -25
42 -16 0 -39 -7 -51 -16z"/>
<path d="M2047 3463 c-13 -12 -7 -129 7 -148 37 -51 64 61 31 125 -15 30 -26
36 -38 23z"/>
<path d="M2452 3443 c-21 -56 -22 -66 -16 -100 7 -38 31 -54 45 -32 5 8 9 47
9 87 0 55 -3 72 -14 72 -7 0 -18 -12 -24 -27z"/>
<path d="M1844 3441 c-11 -5 -35 -26 -53 -47 -73 -83 -93 -187 -46 -242 35
-42 84 -62 149 -62 66 0 87 17 112 93 43 129 -5 249 -106 262 -19 3 -44 1 -56
-4z"/>
<path d="M2610 3443 c-26 -10 -61 -47 -82 -87 -24 -48 -20 -126 10 -197 28
-64 41 -72 116 -67 128 8 187 83 152 194 -36 113 -124 183 -196 157z"/>
<path d="M2118 3186 c-21 -8 -49 -21 -63 -30 -35 -23 -85 -94 -85 -122 0 -14
-20 -43 -54 -77 -37 -37 -58 -68 -67 -98 -7 -24 -14 -46 -15 -48 -2 -2 -18 6
-37 18 -63 38 -98 19 -52 -29 34 -35 125 -77 202 -92 64 -13 73 -20 73 -61 0
-15 11 -49 24 -76 99 -194 355 -192 447 3 16 33 29 75 29 91 0 30 2 31 67 43
113 22 223 82 223 123 0 27 -33 25 -78 -6 l-37 -25 -7 41 c-8 43 -43 98 -89
136 -15 13 -29 37 -33 55 -10 51 -51 104 -102 134 -44 26 -56 28 -178 30 -90
2 -143 -1 -168 -10z m324 -63 c40 -23 78 -77 78 -110 0 -13 10 -31 22 -41 60
-46 107 -103 114 -137 3 -20 2 -41 -3 -46 -5 -5 -44 -17 -87 -25 -59 -12 -97
-14 -169 -8 l-91 9 -9 38 c-9 35 -7 39 42 93 57 62 80 119 62 152 -11 20 -18
21 -133 19 -98 -2 -123 -5 -131 -18 -18 -29 2 -83 54 -146 44 -54 50 -67 47
-100 l-3 -38 -80 -8 c-84 -8 -160 -4 -232 14 -42 11 -43 13 -43 51 0 36 7 47
70 110 43 43 70 79 70 92 0 25 25 64 54 86 38 28 91 37 213 35 100 -2 128 -6
155 -22z m-196 -445 c-1 -37 2 -43 22 -46 20 -3 22 1 22 38 l0 41 63 -6 c122
-12 129 -14 121 -38 -17 -58 -61 -122 -102 -148 -85 -54 -164 -46 -236 24 -40
39 -87 130 -73 143 3 3 43 10 88 15 46 5 85 12 88 14 7 8 8 7 7 -37z"/>
<path d="M1830 2446 c-15 -19 -9 -56 12 -69 34 -22 66 41 36 71 -16 16 -33 15
-48 -2z"/>
<path d="M2668 2449 c-31 -18 -17 -79 18 -79 17 0 44 28 44 45 0 14 -27 45
-38 45 -4 0 -15 -5 -24 -11z"/>
<path d="M1936 2415 c-17 -45 -9 -52 77 -66 105 -18 426 -18 525 0 l73 13 -3
31 -3 32 -60 -5 c-96 -8 -485 -6 -546 3 -48 7 -57 6 -63 -8z"/>
</g>
</svg>
