<svg xmlns="http://www.w3.org/2000/svg" height="24" width="24" viewBox="0 0 24 24"><path d="M10.425 11.45q-2.075 0-3.563-1.488Q5.375 8.475 5.375 6.4q0-2.075 1.487-3.55 1.488-1.475 3.563-1.475t3.563 1.475q1.487 1.475 1.487 3.55 0 2.075-1.487 3.562-1.488 1.488-3.563 1.488Zm12.05 13.425-2.95-2.95q-.5.25-1.062.4-.563.15-1.188.15-2.175 0-3.687-1.513-1.513-1.512-1.513-3.687t1.513-3.688q1.512-1.512 3.687-1.512t3.688 1.512q1.512 1.513 1.512 3.688 0 .625-.15 1.187-.15.563-.4 1.063l2.95 2.95Zm-5.2-5.8q.75 0 1.275-.525.525-.525.525-1.275 0-.75-.525-1.275-.525-.525-1.275-.525-.75 0-1.275.525-.525.525-.525 1.275 0 .75.525 1.275.525.525 1.275.525Zm-5.5-6.375q-1.725 2-1.662 4.588.062 2.587 1.637 4.562H1.275v-3.975q0-1.125.575-2.1.575-.975 1.6-1.45Q4.9 13.55 7.05 13q2.15-.55 4.725-.3Z"/></svg>